<svg xmlns="http://www.w3.org/2000/svg" viewBox="0 0 32 32" fill="none" stroke="currentColor" stroke-width="1.5" stroke-linecap="round" stroke-linejoin="round">
  <style>
    svg { color: #6366f1; }
    @media (prefers-color-scheme: dark) { svg { color: #818cf8; } }
  </style>
  <!-- Head -->
  <ellipse cx="16" cy="10" rx="8" ry="6"/>
  <!-- Eyes -->
  <circle cx="13" cy="9" r="1.5" fill="currentColor" stroke="none"/>
  <circle cx="19" cy="9" r="1.5" fill="currentColor" stroke="none"/>
  <!-- Tentacles -->
  <path d="M8 14 C6 18, 4 22, 3 28"/>
  <path d="M10 15 C8 19, 7 24, 8 29"/>
  <path d="M13 16 C11 20, 11 25, 13 30"/>
  <path d="M16 16 C16 20, 16 25, 16 31"/>
  <path d="M19 16 C21 20, 21 25, 19 30"/>
  <path d="M22 15 C24 19, 25 24, 24 29"/>
  <path d="M24 14 C26 18, 28 22, 29 28"/>
</svg>
